<?xml version="1.0" standalone="no"?>
<!DOCTYPE svg PUBLIC "-//W3C//DTD SVG 20010904//EN" "http://www.w3.org/TR/2001/REC-SVG-20010904/DTD/svg10.dtd">
<svg version="1.0" xmlns="http://www.w3.org/2000/svg" width="1024pt" height="1024pt" viewBox="0 0 1024 1024" preserveAspectRatio="xMidYMid meet">
<g transform="translate(0.000000,1024.000000) scale(0.100000,-0.100000)"
fill="#000000" stroke="none">
<path d="M1917 8286 c-160 -57 -350 -392 -414 -727 -27 -142 -24 -436 5 -590
54 -285 187 -554 401 -810 151 -180 327 -334 605 -529 80 -56 146 -105 146
-109 0 -4 -24 -63 -54 -132 -86 -200 -142 -347 -242 -632 -51 -148 -112 -312
-135 -365 -105 -249 -238 -423 -454 -596 -77 -62 -129 -122 -152 -176 -8 -19
-39 -127 -68 -240 -30 -113 -83 -308 -119 -433 -36 -125 -71 -258 -77 -294
-28 -160 43 -256 238 -324 159 -55 294 -21 324 81 24 79 -11 147 -102 196 -27
15 -49 33 -49 39 0 43 112 340 178 471 71 141 115 179 313 268 413 187 703
347 984 545 87 62 163 110 170 107 7 -2 15 -17 18 -33 3 -15 17 -86 32 -158
38 -185 38 -336 0 -500 -51 -217 -42 -246 138 -432 211 -218 462 -434 577
-496 232 -126 490 -108 545 37 49 127 -42 236 -210 252 -96 9 -122 22 -223
107 -177 151 -262 262 -262 342 0 18 19 63 46 110 164 285 222 390 303 553 75
149 96 185 119 193 20 8 126 5 397 -12 240 -15 475 -23 668 -24 293 0 298 0
294 -20 -97 -414 -180 -821 -203 -996 -31 -235 -3 -418 79 -506 76 -83 206
-127 353 -121 105 4 168 39 198 110 45 108 -14 204 -152 249 l-73 23 6 36 c20
109 141 430 235 625 82 169 246 457 298 524 l19 24 184 -185 c207 -207 324
-301 634 -510 402 -271 472 -331 629 -542 166 -222 237 -280 346 -280 106 -1
157 70 148 205 -5 58 -14 87 -51 162 -79 160 -185 290 -511 627 -250 259 -349
386 -426 545 -82 173 -80 248 13 480 79 194 136 357 217 612 74 237 115 328
175 392 84 90 199 115 381 81 40 -7 108 -11 156 -8 136 7 226 62 312 192 60
91 89 153 94 206 l5 50 -87 88 c-102 103 -118 128 -142 213 -25 92 -66 178
-108 226 -48 55 -174 149 -271 203 -42 23 -79 48 -82 56 -2 7 3 48 12 91 21
105 30 251 16 285 -15 41 -54 46 -110 17 -27 -14 -125 -102 -233 -207 -181
-178 -190 -185 -295 -237 -177 -88 -302 -196 -521 -448 -130 -149 -211 -216
-337 -278 -203 -99 -393 -133 -750 -133 -301 0 -456 13 -1270 108 -382 45
-468 50 -730 50 -313 0 -432 -14 -744 -86 -133 -31 -134 -31 -190 -14 -86 27
-286 127 -386 194 -269 180 -493 419 -609 650 -81 160 -117 320 -117 507 1
202 36 327 161 578 92 185 111 252 91 324 -17 66 -55 111 -115 139 -58 27
-130 31 -189 10z"/>
</g>
</svg>
